<svg width="32" height="32" viewBox="0 0 32 32" fill="none" xmlns="http://www.w3.org/2000/svg">
<path fill-rule="evenodd" clip-rule="evenodd" d="M5.74 15.5L9.68 19.44C9.82737 19.5773 9.94558 19.7429 10.0276 19.9269C10.1095 20.1109 10.1536 20.3095 10.1572 20.511C10.1607 20.7124 10.1237 20.9124 10.0482 21.0992C9.9728 21.286 9.86051 21.4556 9.71808 21.5981C9.57564 21.7405 9.40597 21.8528 9.2192 21.9282C9.03242 22.0037 8.83236 22.0407 8.63095 22.0372C8.42955 22.0336 8.23092 21.9895 8.04692 21.9076C7.86292 21.8256 7.69732 21.7074 7.56 21.56L1.06 15.06L0 14L1.06 12.94L7.56 6.44C7.84435 6.17504 8.22044 6.03079 8.60905 6.03765C8.99765 6.0445 9.36842 6.20193 9.64324 6.47675C9.91807 6.75158 10.0755 7.12235 10.0823 7.51095C10.0892 7.89956 9.94496 8.27565 9.68 8.56L5.74 12.5H25.5C27.2239 12.5 28.8772 13.1848 30.0962 14.4038C31.3152 15.6228 32 17.2761 32 19C32 20.7239 31.3152 22.3772 30.0962 23.5962C28.8772 24.8152 27.2239 25.5 25.5 25.5H21.5C21.1022 25.5 20.7206 25.342 20.4393 25.0607C20.158 24.7794 20 24.3978 20 24C20 23.6022 20.158 23.2206 20.4393 22.9393C20.7206 22.658 21.1022 22.5 21.5 22.5H25.5C26.4283 22.5 27.3185 22.1312 27.9749 21.4749C28.6313 20.8185 29 19.9283 29 19C29 18.0717 28.6313 17.1815 27.9749 16.5251C27.3185 15.8687 26.4283 15.5 25.5 15.5H5.74Z" fill="#EFEAD0"/>
</svg>
