<svg width="48" height="48" viewBox="0 0 48 48" fill="none" xmlns="http://www.w3.org/2000/svg">
<path d="M22.5 0C24.5781 0 26.5703 0.265625 28.4766 0.796875C30.3828 1.32812 32.1797 2.07812 33.8672 3.04688C35.5547 4.01562 37.0703 5.1875 38.4141 6.5625C39.7578 7.9375 40.9297 9.46094 41.9297 11.1328C42.9297 12.8047 43.6875 14.5938 44.2031 16.5C44.7188 18.4062 44.9844 20.4062 45 22.5C45 24.5781 44.7344 26.5703 44.2031 28.4766C43.6719 30.3828 42.9219 32.1797 41.9531 33.8672C40.9844 35.5547 39.8125 37.0703 38.4375 38.4141C37.0625 39.7578 35.5391 40.9297 33.8672 41.9297C32.1953 42.9297 30.4062 43.6875 28.5 44.2031C26.5938 44.7188 24.5938 44.9844 22.5 45C20.4219 45 18.4297 44.7344 16.5234 44.2031C14.6172 43.6719 12.8203 42.9219 11.1328 41.9531C9.44531 40.9844 7.92969 39.8125 6.58594 38.4375C5.24219 37.0625 4.07031 35.5391 3.07031 33.8672C2.07031 32.1953 1.3125 30.4062 0.796875 28.5C0.28125 26.5938 0.015625 24.5938 0 22.5C0 20.4219 0.265625 18.4297 0.796875 16.5234C1.32812 14.6172 2.07812 12.8203 3.04688 11.1328C4.01562 9.44531 5.1875 7.92969 6.5625 6.58594C7.9375 5.24219 9.46094 4.07031 11.1328 3.07031C12.8047 2.07031 14.5938 1.3125 16.5 0.796875C18.4062 0.28125 20.4062 0.015625 22.5 0ZM22.5 42C24.2969 42 26.0234 41.7656 27.6797 41.2969C29.3359 40.8281 30.8828 40.1719 32.3203 39.3281C33.7578 38.4844 35.0781 37.4688 36.2812 36.2812C37.4844 35.0938 38.5 33.7812 39.3281 32.3438C40.1562 30.9062 40.8125 29.3516 41.2969 27.6797C41.7812 26.0078 42.0156 24.2812 42 22.5C42 20.7031 41.7656 18.9766 41.2969 17.3203C40.8281 15.6641 40.1719 14.1172 39.3281 12.6797C38.4844 11.2422 37.4688 9.92188 36.2812 8.71875C35.0938 7.51562 33.7812 6.5 32.3438 5.67188C30.9062 4.84375 29.3516 4.1875 27.6797 3.70312C26.0078 3.21875 24.2812 2.98438 22.5 3C20.7031 3 18.9766 3.23438 17.3203 3.70312C15.6641 4.17188 14.1172 4.82812 12.6797 5.67188C11.2422 6.51562 9.92188 7.53125 8.71875 8.71875C7.51562 9.90625 6.5 11.2188 5.67188 12.6562C4.84375 14.0938 4.1875 15.6484 3.70312 17.3203C3.21875 18.9922 2.98438 20.7188 3 22.5C3 24.2969 3.23438 26.0234 3.70312 27.6797C4.17188 29.3359 4.82812 30.8828 5.67188 32.3203C6.51562 33.7578 7.53125 35.0781 8.71875 36.2812C9.90625 37.4844 11.2188 38.5 12.6562 39.3281C14.0938 40.1562 15.6484 40.8125 17.3203 41.2969C18.9922 41.7812 20.7188 42.0156 22.5 42ZM17.0391 21H33V24H17.0391L23.5547 30.4219L21.4453 32.5781L11.2734 22.5L21.4453 12.4219L23.5547 14.5781L17.0391 21Z" fill="black"/>
</svg>
