<svg width="32" height="32" viewBox="0 0 32 32" fill="none" xmlns="http://www.w3.org/2000/svg">
<path d="M5.00002 28.3333H27C27.3536 28.3333 27.6928 28.1928 27.9428 27.9428C28.1929 27.6927 28.3334 27.3536 28.3334 27V4.99996C28.3334 4.64634 28.1929 4.3072 27.9428 4.05715C27.6928 3.8071 27.3536 3.66663 27 3.66663H5.00002C4.6464 3.66663 4.30726 3.8071 4.05721 4.05715C3.80716 4.3072 3.66669 4.64634 3.66669 4.99996V27C3.66669 27.3536 3.80716 27.6927 4.05721 27.9428C4.30726 28.1928 4.6464 28.3333 5.00002 28.3333Z" stroke="black" stroke-linecap="round" stroke-linejoin="round"/>
<path d="M23.116 10.3694H26.3334M24.7247 15.2254V10.3694M8.88402 16.7747L7.27535 19.2027M7.27535 19.2027L5.66669 16.7747M7.27535 19.2027V21.6307M18.7787 10.3694V13.6167C18.7787 14.0434 18.9482 14.4525 19.2499 14.7542C19.5515 15.0559 19.9607 15.2254 20.3874 15.2254C20.814 15.2254 21.2232 15.0559 21.5249 14.7542C21.8265 14.4525 21.996 14.0434 21.996 13.6167V10.3694M12.004 12.7974C12.326 12.7974 12.6348 12.9253 12.8624 13.153C13.0901 13.3806 13.218 13.6894 13.218 14.0114C13.218 14.3334 13.0901 14.6421 12.8624 14.8698C12.6348 15.0975 12.326 15.2254 12.004 15.2254H10.0007V10.3694H12.004C12.326 10.3694 12.6348 10.4973 12.8624 10.725C13.0901 10.9526 13.218 11.2614 13.218 11.5834C13.218 11.9054 13.0901 12.2141 12.8624 12.4418C12.6348 12.6695 12.326 12.7974 12.004 12.7974ZM12.004 12.7974H10.0007M8.32535 13.6007H6.22135M5.69735 15.2114L7.27535 10.3694L8.85402 15.2254" stroke="black" stroke-linecap="round" stroke-linejoin="round"/>
<path d="M17.562 11.9781C17.562 11.0896 16.8418 10.3694 15.9533 10.3694C15.0649 10.3694 14.3447 11.0896 14.3447 11.9781V13.6174C14.3447 14.5058 15.0649 15.2261 15.9533 15.2261C16.8418 15.2261 17.562 14.5058 17.562 13.6174V11.9781Z" stroke="black" stroke-linecap="round" stroke-linejoin="round"/>
<path d="M14.0173 16.7747V20.022C14.0173 20.4486 14.1868 20.8578 14.4885 21.1595C14.7902 21.4612 15.1994 21.6307 15.626 21.6307C16.0526 21.6307 16.4618 21.4612 16.7635 21.1595C17.0652 20.8578 17.2347 20.4486 17.2347 20.022V16.7747" stroke="black" stroke-linecap="round" stroke-linejoin="round"/>
<path d="M12.8007 18.3833C12.8007 17.4949 12.0805 16.7747 11.192 16.7747C10.3036 16.7747 9.58337 17.4949 9.58337 18.3833V20.0227C9.58337 20.9111 10.3036 21.6313 11.192 21.6313C12.0805 21.6313 12.8007 20.9111 12.8007 20.0227V18.3833Z" stroke="black" stroke-linecap="round" stroke-linejoin="round"/>
</svg>
