<svg width="32" height="32" viewBox="0 0 32 32" fill="none" xmlns="http://www.w3.org/2000/svg">
<path d="M13 4C12.7348 4 12.4804 4.10536 12.2929 4.29289C12.1054 4.48043 12 4.73478 12 5C12 5.26522 12.1054 5.51957 12.2929 5.70711C12.4804 5.89464 12.7348 6 13 6H15V26H13C12.7348 26 12.4804 26.1054 12.2929 26.2929C12.1054 26.4804 12 26.7348 12 27C12 27.2652 12.1054 27.5196 12.2929 27.7071C12.4804 27.8946 12.7348 28 13 28H19C19.2652 28 19.5196 27.8946 19.7071 27.7071C19.8946 27.5196 20 27.2652 20 27C20 26.7348 19.8946 26.4804 19.7071 26.2929C19.5196 26.1054 19.2652 26 19 26H17V6H19C19.2652 6 19.5196 5.89464 19.7071 5.70711C19.8946 5.51957 20 5.26522 20 5C20 4.73478 19.8946 4.48043 19.7071 4.29289C19.5196 4.10536 19.2652 4 19 4H13ZM8 8H13V24H8C6.93913 24 5.92172 23.5786 5.17157 22.8284C4.42143 22.0783 4 21.0609 4 20V12C4 10.9391 4.42143 9.92172 5.17157 9.17157C5.92172 8.42143 6.93913 8 8 8ZM24 24H19V8H24C25.0609 8 26.0783 8.42143 26.8284 9.17157C27.5786 9.92172 28 10.9391 28 12V20C28 21.0609 27.5786 22.0783 26.8284 22.8284C26.0783 23.5786 25.0609 24 24 24Z" fill="black"/>
</svg>
