<svg width="48" height="48" viewBox="0 0 48 48" fill="none" xmlns="http://www.w3.org/2000/svg">
<path fill-rule="evenodd" clip-rule="evenodd" d="M22.586 6.58606C22.961 6.21112 23.4697 6.00049 24 6.00049C24.5303 6.00049 25.0389 6.21112 25.414 6.58606L37.414 18.5861L41.414 22.5861C41.7783 22.9633 41.9799 23.4685 41.9753 23.9929C41.9708 24.5173 41.7604 25.0189 41.3896 25.3897C41.0188 25.7605 40.5172 25.9709 39.9928 25.9754C39.4684 25.98 38.9632 25.7784 38.586 25.4141L38 24.8281V38.0001C38 39.0609 37.5786 40.0783 36.8284 40.8285C36.0783 41.5786 35.0609 42.0001 34 42.0001H28C27.4696 42.0001 26.9608 41.7893 26.5858 41.4143C26.2107 41.0392 26 40.5305 26 40.0001V34.0001H22V40.0001C22 40.5305 21.7893 41.0392 21.4142 41.4143C21.0391 41.7893 20.5304 42.0001 20 42.0001H14C12.9391 42.0001 11.9217 41.5786 11.1716 40.8285C10.4214 40.0783 9.99999 39.0609 9.99999 38.0001V24.8281L9.41399 25.4141C9.03679 25.7784 8.53158 25.98 8.00719 25.9754C7.48279 25.9709 6.98117 25.7605 6.61035 25.3897C6.23954 25.0189 6.0292 24.5173 6.02464 23.9929C6.02009 23.4685 6.22167 22.9633 6.58599 22.5861L10.586 18.5861L22.586 6.58606Z" fill="white"/>
</svg>
