<svg width="64" height="64" viewBox="0 0 64 64" fill="none" xmlns="http://www.w3.org/2000/svg">
<path d="M20 16C20 12.8174 21.2643 9.76515 23.5147 7.51472C25.7652 5.26428 28.8174 4 32 4C35.1826 4 38.2348 5.26428 40.4853 7.51472C42.7357 9.76515 44 12.8174 44 16C44 23.046 40.028 33.072 37.68 38.38C36.692 40.62 34.454 42 32 42C29.548 42 27.31 40.62 26.32 38.38C23.97 33.072 20 23.044 20 16ZM32 60C33.8565 60 35.637 59.2625 36.9497 57.9497C38.2625 56.637 39 54.8565 39 53C39 51.1435 38.2625 49.363 36.9497 48.0503C35.637 46.7375 33.8565 46 32 46C30.1435 46 28.363 46.7375 27.0503 48.0503C25.7375 49.363 25 51.1435 25 53C25 54.8565 25.7375 56.637 27.0503 57.9497C28.363 59.2625 30.1435 60 32 60Z" fill="#C63609"/>
</svg>
