<svg width="40" height="40" viewBox="0 0 40 40" fill="none" xmlns="http://www.w3.org/2000/svg">
<g clip-path="url(#clip0_397_447)">
<path d="M4.6889 25.7777L2.57779 34.8888C2.50497 35.2219 2.50746 35.567 2.5851 35.899C2.66274 36.231 2.81355 36.5414 3.02653 36.8076C3.23951 37.0738 3.50927 37.2891 3.8161 37.4377C4.12293 37.5864 4.45909 37.6645 4.80002 37.6666C4.95887 37.6826 5.11894 37.6826 5.27779 37.6666L14.4445 35.5555L32.0445 18.0222L22.2222 8.22217L4.6889 25.7777Z" fill="white"/>
<path d="M37.5777 9.24438L31.0222 2.68883C30.5912 2.26001 30.0079 2.01929 29.4 2.01929C28.792 2.01929 28.2087 2.26001 27.7777 2.68883L24.1333 6.33327L33.9444 16.1444L37.5889 12.4999C37.8021 12.2856 37.971 12.0313 38.0859 11.7516C38.2008 11.4719 38.2594 11.1722 38.2584 10.8699C38.2574 10.5675 38.1967 10.2683 38.0799 9.98935C37.9631 9.71043 37.7925 9.45728 37.5777 9.24438Z" fill="white"/>
</g>
<defs>
<clipPath id="clip0_397_447">
<rect width="40" height="40" fill="white"/>
</clipPath>
</defs>
</svg>
