<svg width="128" height="128" viewBox="0 0 128 128" fill="none" xmlns="http://www.w3.org/2000/svg">
<path d="M66.6666 37.3333C66.6666 31.4133 71.4133 26.6666 77.3333 26.6666H96C101.867 26.6666 106.667 31.4666 106.667 37.3333V48.8533C100.48 51.04 96 56.9066 96 63.84V74.6666H66.6666V37.3333ZM32 63.7866V74.6666H61.3333V37.3333C61.3333 31.4133 56.5866 26.6666 50.6666 26.6666H32C26.1333 26.6666 21.3333 31.4666 21.3333 37.3333V48.8C27.52 50.9866 32 56.9066 32 63.7866ZM110.187 53.4933C104.96 54.3466 101.333 59.3066 101.333 64.64V80H26.6666V64C26.6666 61.171 25.5428 58.4579 23.5425 56.4575C21.5421 54.4571 18.829 53.3333 16 53.3333C13.171 53.3333 10.4579 54.4571 8.45751 56.4575C6.45712 58.4579 5.33331 61.171 5.33331 64V90.6666C5.33331 96.5333 10.1333 101.333 16 101.333V112H26.6666V101.333H101.333V112H112V101.333C117.867 101.333 122.667 96.5333 122.667 90.6666V64C122.667 57.5466 116.853 52.3733 110.187 53.4933Z" fill="black"/>
</svg>
